<svg xmlns="http://www.w3.org/2000/svg" viewBox="0 0 960 420" role="img" aria-label="Four Molkky playing fields">
  <defs>
    <linearGradient id="grass" x1="0" x2="1" y1="0" y2="1">
      <stop offset="0" stop-color="#b8d8aa"/>
      <stop offset="1" stop-color="#6aa06e"/>
    </linearGradient>
    <pattern id="grain" width="24" height="24" patternUnits="userSpaceOnUse">
      <path d="M0 8c8-5 15-5 24 0M0 20c7-3 15-3 24 0" fill="none" stroke="#ffffff" stroke-opacity=".16" stroke-width="2"/>
    </pattern>
  </defs>
  <rect width="960" height="420" rx="28" fill="url(#grass)"/>
  <rect width="960" height="420" rx="28" fill="url(#grain)"/>
  <g fill="none" stroke="#f9f5e8" stroke-width="5" stroke-linecap="round">
    <path d="M42 56h396v130H42zM522 56h396v130H522zM42 234h396v130H42zM522 234h396v130H522z"/>
    <path d="M112 121h256M592 121h256M112 299h256M592 299h256"/>
  </g>
  <g fill="#7a4f2a">
    <circle cx="236" cy="121" r="14"/><circle cx="256" cy="100" r="14"/><circle cx="276" cy="121" r="14"/><circle cx="256" cy="142" r="14"/>
    <circle cx="716" cy="121" r="14"/><circle cx="736" cy="100" r="14"/><circle cx="756" cy="121" r="14"/><circle cx="736" cy="142" r="14"/>
    <circle cx="236" cy="299" r="14"/><circle cx="256" cy="278" r="14"/><circle cx="276" cy="299" r="14"/><circle cx="256" cy="320" r="14"/>
    <circle cx="716" cy="299" r="14"/><circle cx="736" cy="278" r="14"/><circle cx="756" cy="299" r="14"/><circle cx="736" cy="320" r="14"/>
  </g>
  <g font-family="Arial, sans-serif" font-size="26" font-weight="700" fill="#214232">
    <text x="64" y="92">Field 1</text><text x="544" y="92">Field 2</text><text x="64" y="270">Field 3</text><text x="544" y="270">Field 4</text>
  </g>
</svg>
